# xmcd
#
# Track frame offsets: 
#        150
#        27188
#        46531
#        64553
#        84977
#        103695
#        133786
#        149120
#        176260
#        192021
#        216944
#        237267
#        261368
#        298309
#
# Disc length: 4440 seconds
#
# Revision: 16
# Processed by: cddbd v1.5.2PL0 Copyright (c) Steve Scherf et al.
# Submitted via: ExactAudioCopy v1.0b3
#
DISCID=cc11560e
DTITLE=Van Morrison - What's Wrong With This Picture
DYEAR=2003
DGENRE=Blues Rock
TTITLE0=What's Wrong With This Picture
TTITLE1=Whinin Boy Moan
TTITLE2=Evening In June
TTITLE3=Too Many Myths
TTITLE4=Somerset
TTITLE5=Meaning Of Loneliness
TTITLE6=Stop Drinking
TTITLE7=Goldfish Bowl
TTITLE8=Once In A Blue Moon
TTITLE9=Saint James Infirmary
TTITLE10=Little Village
TTITLE11=Fame
TTITLE12=Get On With The Show
TTITLE13=DATA
EXTD=YEAR: 2003
EXTT0=
EXTT1=
EXTT2=
EXTT3=
EXTT4=
EXTT5=
EXTT6=
EXTT7=
EXTT8=
EXTT9=
EXTT10=
EXTT11=
EXTT12=
EXTT13=
PLAYORDER=
